<?xml version="1.0" encoding="utf-8"?>
<!-- Generator: Adobe Illustrator 17.1.0, SVG Export Plug-In . SVG Version: 6.00 Build 0)  -->
<!DOCTYPE svg PUBLIC "-//W3C//DTD SVG 1.1//EN" "http://www.w3.org/Graphics/SVG/1.1/DTD/svg11.dtd">
<svg version="1.1" id="Layer_1" xmlns="http://www.w3.org/2000/svg" xmlns:xlink="http://www.w3.org/1999/xlink" x="0px" y="0px"
	 viewBox="0 0 532 102" enable-background="new 0 0 532 102" xml:space="preserve">
<g>
	<g>
		<path fill="#23803F" d="M44.05,76.379L24.686,65.246L24.638,38.34L44.05,27.086V4.357c-0.801,0.232-1.566,0.519-2.232,0.905
			L10.673,23.318c-3.331,1.931-6.05,6.661-6.043,10.511l0.065,36c0.007,3.85,2.743,8.57,6.081,10.489l31.209,17.944
			c0.619,0.356,1.327,0.623,2.065,0.847V76.379z"/>
	</g>
	<g>
		<path fill="#076692" d="M91.232,33.674c-0.007-3.85-2.743-8.57-6.081-10.489L53.942,5.24c-0.632-0.363-1.354-0.635-2.109-0.86
			v22.718l19.407,11.158l0.048,26.906L51.833,76.442v22.717c0.818-0.234,1.598-0.526,2.276-0.919l31.145-18.056
			c3.331-1.931,6.05-6.661,6.043-10.511L91.232,33.674z"/>
	</g>
</g>
<g>
	<path fill="#076692" d="M520.316,28.386v0.68h-2.292v5.943h-0.817v-5.943h-2.315v-0.68H520.316z M525.339,33.051
		c0.038-0.123,0.088-0.234,0.149-0.334l2.453-4.192c0.038-0.062,0.075-0.1,0.109-0.115s0.09-0.023,0.167-0.023h0.656v6.623h-0.714
		v-5.103l0.058-0.507l-2.522,4.377c-0.062,0.123-0.157,0.185-0.288,0.185h-0.126c-0.131,0-0.227-0.062-0.288-0.185l-2.568-4.354
		l0.058,0.483v5.103h-0.726v-6.623h0.656c0.076,0,0.132,0.008,0.167,0.023c0.034,0.016,0.078,0.054,0.132,0.115l2.5,4.192
		L525.339,33.051z"/>
</g>
<path display="none" fill="#CCCCCC" d="M54.588,76.955c-1.012,1.584-2.321,2.948-3.752,3.778L19.691,98.789
	c-1.543,0.895-3.616,1.388-5.836,1.388c-2.2,0-4.256-0.485-5.789-1.366l-31.209-17.944c-3.208-1.845-5.824-6.356-5.83-10.057
	l-0.064-36c-0.006-3.701,2.593-8.221,5.794-10.077L7.902,6.677c0.955-0.553,2.125-0.932,3.395-1.156l-1.295-0.744
	C9.05,5.031,8.163,5.369,7.4,5.811l-31.145,18.056c-3.477,2.016-6.3,6.925-6.292,10.944l0.064,36
	c0.007,4.019,2.848,8.918,6.332,10.922L7.568,99.677c1.682,0.967,3.914,1.499,6.287,1.499c2.394,0,4.645-0.541,6.338-1.522
	l31.145-18.056c1.396-0.809,2.682-2.089,3.726-3.586C54.889,77.665,54.732,77.311,54.588,76.955z"/>
<path display="none" fill="#CCCCCC" d="M92.569-46.69c3.208,1.845,5.824,6.356,5.83,10.056l0.064,36
	c0.003,1.677-0.533,3.521-1.414,5.21v1.925c1.47-2.189,2.418-4.811,2.414-7.138l-0.064-36c-0.007-4.019-2.848-8.918-6.332-10.921
	L61.858-65.501C60.176-66.468,57.943-67,55.571-67c-2.394,0-4.644,0.541-6.337,1.522L18.089-47.422
	c-3.477,2.016-6.3,6.925-6.292,10.944l0.064,36c0.001,0.421,0.039,0.854,0.1,1.29l1.124,0.646c-0.142-0.658-0.223-1.31-0.224-1.938
	l-0.064-36c-0.006-3.701,2.593-8.221,5.794-10.077l31.145-18.056C51.278-65.507,53.351-66,55.571-66
	c2.201,0,4.256,0.485,5.789,1.366L92.569-46.69z"/>
<g display="none">
	<path display="inline" fill="#CCCCCC" d="M179.236,95.873c1.575,0.906,3.005,2.456,4.056,4.236h1.128
		c-1.16-2.142-2.829-4.035-4.686-5.103l-31.209-17.944c-1.299-0.747-2.93-1.226-4.696-1.41c-0.098,0.328-0.215,0.654-0.341,0.98
		c1.719,0.148,3.303,0.586,4.539,1.297L179.236,95.873z"/>
	<path display="inline" fill="#CCCCCC" d="M181.098,150.667c-0.556,0.528-1.147,0.984-1.762,1.34l-31.145,18.056
		c-1.543,0.895-3.616,1.388-5.836,1.388c-2.2,0-4.256-0.485-5.789-1.366l-31.209-17.944c-3.208-1.845-5.824-6.356-5.83-10.057
		l-0.064-36c-0.003-1.643,0.52-3.443,1.37-5.103v-1.95c-1.442,2.173-2.374,4.755-2.37,7.055l0.064,36
		c0.007,4.019,2.848,8.918,6.332,10.922l31.209,17.944c1.682,0.967,3.914,1.499,6.287,1.499c2.394,0,4.645-0.541,6.338-1.522
		l31.145-18.056c0.942-0.546,1.833-1.309,2.635-2.205H181.098z"/>
</g>
<g>
	<path fill="#23803F" d="M144.23,66.569c0.194,0,0.36,0.068,0.497,0.204l1.171,1.259c-0.858,0.917-1.795,1.741-2.81,2.473
		s-2.122,1.356-3.322,1.873c-1.199,0.518-2.517,0.918-3.95,1.2c-1.435,0.282-3.01,0.424-4.727,0.424
		c-2.868,0-5.498-0.502-7.888-1.507s-4.438-2.429-6.146-4.272s-3.039-4.073-3.995-6.688s-1.434-5.521-1.434-8.722
		c0-3.141,0.492-6.009,1.478-8.604s2.371-4.824,4.156-6.688s3.922-3.308,6.409-4.331c2.487-1.024,5.233-1.537,8.238-1.537
		c1.502,0,2.878,0.112,4.126,0.337c1.249,0.225,2.415,0.546,3.498,0.966s2.103,0.941,3.059,1.565
		c0.955,0.625,1.892,1.347,2.81,2.166l-0.907,1.316c-0.157,0.234-0.4,0.352-0.732,0.352c-0.175,0-0.399-0.103-0.673-0.308
		c-0.273-0.204-0.619-0.458-1.039-0.761c-0.42-0.302-0.927-0.634-1.521-0.995c-0.596-0.36-1.303-0.692-2.122-0.995
		c-0.819-0.302-1.766-0.556-2.839-0.761s-2.293-0.308-3.658-0.308c-2.517,0-4.829,0.435-6.937,1.303
		c-2.106,0.868-3.921,2.107-5.443,3.717c-1.521,1.609-2.707,3.561-3.556,5.854s-1.272,4.863-1.272,7.711
		c0,2.927,0.419,5.542,1.258,7.844c0.839,2.303,2,4.248,3.482,5.839c1.482,1.59,3.234,2.81,5.254,3.658s4.209,1.272,6.57,1.272
		c1.482,0,2.804-0.097,3.965-0.292s2.229-0.488,3.205-0.878c0.976-0.391,1.883-0.868,2.722-1.435
		c0.839-0.565,1.668-1.229,2.488-1.99c0.097-0.077,0.189-0.141,0.277-0.19C144.011,66.594,144.113,66.569,144.23,66.569z"/>
	<path fill="#23803F" d="M186.49,73.534h-2.312c-0.273,0-0.497-0.073-0.673-0.22s-0.312-0.336-0.41-0.57l-4.887-12.028h-20.34
		l-4.858,12.028c-0.078,0.215-0.215,0.4-0.41,0.556c-0.195,0.156-0.429,0.234-0.702,0.234h-2.282l16.944-41.411h2.985L186.49,73.534
		z M158.775,58.491h18.555l-8.458-20.925c-0.137-0.332-0.273-0.707-0.41-1.127c-0.137-0.419-0.273-0.863-0.409-1.332
		c-0.137,0.469-0.273,0.913-0.41,1.332c-0.137,0.42-0.273,0.805-0.409,1.156L158.775,58.491z"/>
	<path fill="#23803F" d="M195.151,32.226c0.156,0.068,0.322,0.219,0.498,0.453l26.808,35.88c-0.059-0.585-0.088-1.15-0.088-1.697
		V32.123h2.634v41.411h-1.435c-0.448,0-0.81-0.194-1.082-0.585L195.562,37.01c0.059,0.586,0.088,1.142,0.088,1.669v34.855h-2.605
		V32.123h1.464C194.78,32.123,194.995,32.157,195.151,32.226z"/>
	<path fill="#23803F" d="M239.401,32.226c0.156,0.068,0.322,0.219,0.498,0.453l26.808,35.88c-0.059-0.585-0.088-1.15-0.088-1.697
		V32.123h2.634v41.411h-1.435c-0.448,0-0.81-0.194-1.082-0.585L239.812,37.01c0.059,0.586,0.088,1.142,0.088,1.669v34.855h-2.605
		V32.123h1.464C239.03,32.123,239.245,32.157,239.401,32.226z"/>
	<path fill="#23803F" d="M312.714,73.534h-2.312c-0.273,0-0.497-0.073-0.673-0.22s-0.312-0.336-0.41-0.57l-4.887-12.028h-20.34
		l-4.858,12.028c-0.078,0.215-0.215,0.4-0.41,0.556c-0.195,0.156-0.429,0.234-0.702,0.234h-2.282l16.944-41.411h2.985
		L312.714,73.534z M284.999,58.491h18.555l-8.458-20.925c-0.137-0.332-0.273-0.707-0.41-1.127c-0.137-0.419-0.273-0.863-0.409-1.332
		c-0.137,0.469-0.273,0.913-0.41,1.332c-0.137,0.42-0.273,0.805-0.409,1.156L284.999,58.491z"/>
	<path fill="#23803F" d="M319.268,73.534V32.123h11.912c2.36,0,4.404,0.233,6.131,0.702c1.727,0.468,3.155,1.156,4.287,2.063
		s1.976,2.015,2.532,3.321c0.556,1.308,0.834,2.79,0.834,4.448c0,1.093-0.19,2.146-0.571,3.161c-0.38,1.015-0.932,1.951-1.653,2.81
		s-1.605,1.604-2.648,2.238c-1.044,0.635-2.239,1.117-3.585,1.449c3.258,0.488,5.766,1.57,7.521,3.248
		c1.756,1.679,2.634,3.893,2.634,6.644c0,1.756-0.312,3.337-0.937,4.741c-0.625,1.405-1.532,2.595-2.722,3.57
		c-1.19,0.977-2.654,1.723-4.391,2.239s-3.707,0.775-5.911,0.775H319.268z M322.253,51.497h8.984c1.912,0,3.546-0.244,4.902-0.731
		c1.356-0.488,2.468-1.132,3.337-1.932c0.867-0.8,1.507-1.707,1.916-2.722c0.41-1.015,0.615-2.059,0.615-3.132
		c0-2.79-0.883-4.902-2.648-6.336c-1.767-1.435-4.492-2.151-8.18-2.151h-8.927V51.497z M322.253,53.691v17.443h10.39
		c3.648,0,6.399-0.785,8.253-2.356c1.854-1.57,2.78-3.779,2.78-6.629c0-1.307-0.249-2.482-0.746-3.526
		c-0.498-1.043-1.215-1.932-2.151-2.663s-2.088-1.292-3.453-1.683c-1.366-0.391-2.917-0.586-4.653-0.586H322.253z"/>
	<path fill="#23803F" d="M360.884,73.534h-3.015V32.123h3.015V73.534z"/>
	<path fill="#076692" d="M410.343,52.199c0,3.083-0.531,5.927-1.595,8.531s-2.561,4.858-4.492,6.761
		c-1.932,1.901-4.258,3.385-6.979,4.448c-2.723,1.063-5.741,1.595-9.059,1.595h-16.564V30.894h16.564
		c3.317,0,6.336,0.537,9.059,1.609c2.722,1.073,5.048,2.557,6.979,4.448c1.932,1.894,3.429,4.142,4.492,6.746
		S410.343,49.137,410.343,52.199z M400.217,52.199c0-2.107-0.273-4.01-0.819-5.707s-1.331-3.136-2.355-4.316
		s-2.278-2.088-3.761-2.722c-1.483-0.634-3.171-0.951-5.063-0.951h-6.614v27.422h6.614c1.893,0,3.58-0.316,5.063-0.951
		c1.482-0.634,2.736-1.541,3.761-2.722c1.024-1.18,1.81-2.619,2.355-4.316S400.217,54.326,400.217,52.199z"/>
	<path fill="#076692" d="M453.012,73.534h-7.667c-0.859,0-1.566-0.2-2.122-0.6c-0.556-0.4-0.941-0.912-1.156-1.537l-2.517-7.434
		h-16.214l-2.517,7.434c-0.195,0.547-0.575,1.039-1.142,1.479c-0.565,0.438-1.258,0.658-2.077,0.658h-7.727l16.506-42.641h10.126
		L453.012,73.534z M425.619,57.233h11.647l-3.921-11.678c-0.254-0.741-0.552-1.614-0.893-2.619c-0.342-1.005-0.679-2.093-1.01-3.263
		c-0.312,1.189-0.635,2.292-0.966,3.307c-0.332,1.015-0.645,1.893-0.937,2.634L425.619,57.233z"/>
	<path fill="#076692" d="M482.747,30.894v7.844h-11.999v34.797h-9.893V38.737h-11.999v-7.844H482.747z"/>
	<path fill="#076692" d="M521.847,73.534h-7.667c-0.859,0-1.566-0.2-2.122-0.6c-0.556-0.4-0.941-0.912-1.156-1.537l-2.517-7.434
		h-16.214l-2.517,7.434c-0.195,0.547-0.575,1.039-1.142,1.479c-0.565,0.438-1.258,0.658-2.077,0.658h-7.727l16.506-42.641h10.126
		L521.847,73.534z M494.454,57.233h11.647l-3.921-11.678c-0.254-0.741-0.552-1.614-0.893-2.619c-0.342-1.005-0.679-2.093-1.01-3.263
		c-0.312,1.189-0.635,2.292-0.966,3.307c-0.332,1.015-0.645,1.893-0.937,2.634L494.454,57.233z"/>
</g>
</svg>
